<svg width="72" height="76" viewBox="0 0 72 76" fill="none" xmlns="http://www.w3.org/2000/svg">
<path d="M69.2148 44.4068L69.6294 49.0917C69.7944 50.9555 69.2181 52.8062 68.0274 54.2367C66.8367 55.6672 65.1291 56.5603 63.2802 56.7195L12.1578 61.1228C10.3089 61.2821 8.47024 60.6944 7.04623 59.4891C5.62222 58.2838 4.72954 56.5597 4.56458 54.6959L4.1499 50.011L69.2148 44.4068Z" fill="url(#paint0_linear_260_744)"/>
<path d="M66.3313 11.8838L69.2344 44.5184L4.21752 50.1009L1.31442 17.4663C1.16918 15.8148 1.61084 14.1672 2.56118 12.8152C3.51152 11.4632 4.90921 10.4942 6.50674 10.0797L59.9135 5.49405C61.56 5.63001 63.1076 6.34616 64.2822 7.51567C65.4569 8.68518 66.1827 10.2326 66.3313 11.8838Z" fill="url(#paint1_linear_260_744)"/>
<path d="M50.8888 71.8176L26.9942 73.8693L30.5336 59.471L44.861 58.2407L50.8888 71.8176Z" fill="#645DDE"/>
<path d="M52.8758 71.6329L24.986 74.0449C24.6778 74.0716 24.3713 73.973 24.134 73.771C23.8966 73.5689 23.7478 73.2799 23.7203 72.9675C23.6928 72.6551 23.7889 72.3449 23.9874 72.1051C24.1859 71.8654 24.4706 71.7157 24.7788 71.6891L52.6685 69.2771C52.9767 69.2504 53.2832 69.349 53.5206 69.551C53.758 69.7531 53.9067 70.0421 53.9342 70.3545C53.9617 70.6669 53.8656 70.9771 53.6671 71.2169C53.4686 71.4566 53.184 71.6063 52.8758 71.6329Z" fill="#342EAD"/>
<path d="M38.4654 54.1317L36.143 54.3311C35.835 54.3576 35.5288 54.2601 35.2915 54.0601C35.0543 53.8601 34.9056 53.5739 34.8781 53.2646C34.8506 52.9553 34.9466 52.6482 35.1449 52.4108C35.3432 52.1733 35.6276 52.0251 35.9356 51.9987L38.258 51.7992C38.566 51.7728 38.8722 51.8703 39.1095 52.0703C39.3467 52.2703 39.4954 52.5564 39.5229 52.8657C39.5504 53.175 39.4544 53.4822 39.2561 53.7196C39.0578 53.957 38.7734 54.1052 38.4654 54.1317Z" fill="url(#paint2_linear_260_744)"/>
<path d="M59.747 3.09055L60.5764 12.4505L7.13398 17.0502L6.30453 7.69021C6.24953 7.06961 6.4416 6.45335 6.83847 5.97701C7.23533 5.50068 7.8045 5.20327 8.42075 5.15023L57.216 0.950543C57.8323 0.897504 58.4451 1.09317 58.9198 1.4945C59.3944 1.89583 59.692 2.46995 59.747 3.09055Z" fill="#928EE0"/>
<g filter="url(#filter0_d_260_744)">
<path d="M60.5305 12.3728L62.708 36.8615C62.763 37.4801 62.5711 38.0943 62.1744 38.5691C61.7778 39.0439 61.2089 39.3403 60.5929 39.3932L11.8216 43.5819C11.2057 43.6348 10.5931 43.4399 10.1187 43.0399C9.64423 42.6399 9.3468 42.0677 9.2918 41.4491L7.11426 16.9604L60.5305 12.3728Z" fill="white"/>
</g>
<path d="M53.3014 9.50079C52.8424 9.54018 52.3817 9.44211 51.9773 9.21898C51.5729 8.99585 51.2431 8.65768 51.0296 8.24724C50.8161 7.83679 50.7285 7.3725 50.7778 6.91308C50.8272 6.45367 51.0112 6.01975 51.3068 5.66622C51.6023 5.31268 51.996 5.0554 52.4381 4.9269C52.8803 4.79841 53.3509 4.80448 53.7906 4.94434C54.2303 5.0842 54.6193 5.35158 54.9084 5.71265C55.1974 6.07372 55.3736 6.51228 55.4146 6.97286C55.4696 7.59049 55.2778 8.20379 54.8815 8.67787C54.4852 9.15195 53.9168 9.44796 53.3014 9.50079Z" fill="white"/>
<path d="M46.3282 10.1109C45.8693 10.1503 45.4085 10.0522 45.0041 9.82909C44.5998 9.60596 44.27 9.26779 44.0565 8.85734C43.843 8.4469 43.7553 7.98261 43.8047 7.52319C43.854 7.06377 44.0381 6.62986 44.3336 6.27632C44.6291 5.92279 45.0229 5.6655 45.465 5.53701C45.9071 5.40852 46.3778 5.41459 46.8175 5.55445C47.2572 5.69431 47.6462 5.96168 47.9352 6.32276C48.2243 6.68383 48.4005 7.12239 48.4414 7.58297C48.4964 8.20059 48.3047 8.8139 47.9084 9.28798C47.5121 9.76206 46.9437 10.0581 46.3282 10.1109Z" fill="white"/>
<path d="M39.3546 10.721C38.8957 10.7604 38.4349 10.6623 38.0305 10.4392C37.6261 10.2161 37.2963 9.8779 37.0828 9.46745C36.8693 9.057 36.7817 8.59272 36.831 8.1333C36.8804 7.67388 37.0644 7.23997 37.36 6.88643C37.6555 6.53289 38.0492 6.27561 38.4914 6.14712C38.9335 6.01863 39.4042 6.0247 39.8439 6.16456C40.2836 6.30442 40.6725 6.57179 40.9616 6.93287C41.2507 7.29394 41.4268 7.7325 41.4678 8.19308C41.5228 8.8107 41.331 9.42401 40.9347 9.89809C40.5384 10.3722 39.97 10.6682 39.3546 10.721Z" fill="white"/>
<path d="M32.2759 10.1892L12.5217 11.8948C12.2135 11.9214 11.907 11.8231 11.6696 11.6215C11.4323 11.4199 11.2835 11.1315 11.256 10.8198C11.2285 10.508 11.3246 10.1985 11.523 9.95928C11.7215 9.72004 12.0062 9.57069 12.3144 9.54408L32.0686 7.83848C32.3768 7.81187 32.6833 7.91018 32.9206 8.11179C33.158 8.3134 33.3068 8.60179 33.3343 8.91352C33.3617 9.22524 33.2657 9.53477 33.0672 9.77401C32.8687 10.0133 32.5841 10.1626 32.2759 10.1892Z" fill="white"/>
<path d="M26.1966 21.2324L16.9177 22.0289C16.2771 22.0838 15.8042 22.6496 15.8614 23.2925L16.8974 34.9329C16.9546 35.5757 17.5203 36.0523 18.1609 35.9973L27.4398 35.2008C28.0804 35.1459 28.5533 34.5801 28.4961 33.9372L27.4601 22.2968C27.4029 21.654 26.8372 21.1774 26.1966 21.2324Z" fill="#F3CFCB"/>
<path d="M54.271 34.0298L34.5168 35.7354C34.2086 35.762 33.9021 35.6637 33.6647 35.4621C33.4274 35.2605 33.2786 34.9721 33.2511 34.6604C33.2236 34.3486 33.3197 34.0391 33.5182 33.7999C33.7166 33.5606 34.0013 33.4113 34.3095 33.3847L54.0637 31.6791C54.3719 31.6524 54.6784 31.7508 54.9157 31.9524C55.1531 32.154 55.3019 32.4424 55.3294 32.7541C55.3569 33.0658 55.2608 33.3754 55.0623 33.6146C54.8638 33.8538 54.5792 34.0032 54.271 34.0298Z" fill="#F3CFCB"/>
<path d="M53.8643 29.3807L34.11 31.0863C33.8018 31.113 33.4954 31.0146 33.258 30.813C33.0206 30.6114 32.8719 30.323 32.8444 30.0113C32.8169 29.6996 32.9129 29.39 33.1114 29.1508C33.3099 28.9116 33.5946 28.7622 33.9027 28.7356L53.657 27.03C53.9652 27.0034 54.2716 27.1017 54.509 27.3033C54.7464 27.5049 54.8951 27.7933 54.9226 28.105C54.9501 28.4168 54.8541 28.7263 54.6556 28.9655C54.4571 29.2048 54.1725 29.3541 53.8643 29.3807Z" fill="#F3CFCB"/>
<path d="M50.6166 19.0974L33.1905 20.5968C32.5489 20.652 32.0752 21.2205 32.1325 21.8665L32.3399 24.2059C32.3972 24.852 32.9637 25.3309 33.6054 25.2757L51.0314 23.7763C51.6731 23.7211 52.1468 23.1526 52.0895 22.5066L51.8821 20.1672C51.8248 19.5212 51.2582 19.0422 50.6166 19.0974Z" fill="#FF6D5A"/>
<defs>
<filter id="filter0_d_260_744" x="5.11426" y="11.3728" width="59.603" height="35.2177" filterUnits="userSpaceOnUse" color-interpolation-filters="sRGB">
<feFlood flood-opacity="0" result="BackgroundImageFix"/>
<feColorMatrix in="SourceAlpha" type="matrix" values="0 0 0 0 0 0 0 0 0 0 0 0 0 0 0 0 0 0 127 0" result="hardAlpha"/>
<feOffset dy="1"/>
<feGaussianBlur stdDeviation="1"/>
<feComposite in2="hardAlpha" operator="out"/>
<feColorMatrix type="matrix" values="0 0 0 0 0.139041 0 0 0 0 0.120729 0 0 0 0 0.508333 0 0 0 0.3 0"/>
<feBlend mode="normal" in2="BackgroundImageFix" result="effect1_dropShadow_260_744"/>
<feBlend mode="normal" in="SourceGraphic" in2="effect1_dropShadow_260_744" result="shape"/>
</filter>
<linearGradient id="paint0_linear_260_744" x1="37.719" y1="58.9212" x2="36.71" y2="47.2065" gradientUnits="userSpaceOnUse">
<stop stop-color="#342EAD"/>
<stop offset="1" stop-color="#D2D0FF"/>
</linearGradient>
<linearGradient id="paint1_linear_260_744" x1="82.9906" y1="54.4943" x2="10.3451" y2="9.97821" gradientUnits="userSpaceOnUse">
<stop stop-color="#342EAD"/>
<stop offset="1" stop-color="#DCDAFC"/>
</linearGradient>
<linearGradient id="paint2_linear_260_744" x1="34.8781" y1="53.2646" x2="39.5216" y2="52.8517" gradientUnits="userSpaceOnUse">
<stop stop-color="#D3E6F5"/>
<stop offset="1" stop-color="#F0F7FC"/>
</linearGradient>
</defs>
</svg>
