<svg width="66" height="70" viewBox="0 0 66 70" fill="none" xmlns="http://www.w3.org/2000/svg">
<path d="M65.3338 44.3334V49C65.3338 50.8566 64.5963 52.637 63.2836 53.9498C61.9708 55.2625 60.1903 56 58.3338 56H7.00049C5.14397 56 3.3635 55.2625 2.05074 53.9498C0.737986 52.637 0.000488281 50.8566 0.000488281 49V44.3334H65.3338Z" fill="url(#paint0_linear_260_679)"/>
<path d="M65.334 11.6666V44.3333H0.000683704V11.6666C-0.022663 9.99561 0.552589 8.37138 1.62245 7.08754C2.69231 5.80371 4.18619 4.94499 5.83402 4.66663H59.5007C61.1485 4.94499 62.6424 5.80371 63.7122 7.08754C64.7821 8.37138 65.3574 9.99561 65.334 11.6666Z" fill="url(#paint1_linear_260_679)"/>
<path d="M44.6721 69.9417H20.6621L25.4688 55.9417H39.8654L44.6721 69.9417Z" fill="#645DDE"/>
<path d="M46.6672 70H18.6672C18.3577 70 18.061 69.877 17.8422 69.6583C17.6234 69.4395 17.5005 69.1427 17.5005 68.8333C17.5005 68.5239 17.6234 68.2271 17.8422 68.0083C18.061 67.7895 18.3577 67.6666 18.6672 67.6666H46.6672C46.9766 67.6666 47.2733 67.7895 47.4921 68.0083C47.7109 68.2271 47.8338 68.5239 47.8338 68.8333C47.8338 69.1427 47.7109 69.4395 47.4921 69.6583C47.2733 69.877 46.9766 70 46.6672 70Z" fill="#342EAD"/>
<path d="M33.834 51.3333H31.5007C31.1912 51.3333 30.8945 51.2104 30.6757 50.9916C30.4569 50.7728 30.334 50.4761 30.334 50.1667C30.334 49.8572 30.4569 49.5605 30.6757 49.3417C30.8945 49.1229 31.1912 49 31.5007 49H33.834C34.1434 49 34.4402 49.1229 34.6589 49.3417C34.8777 49.5605 35.0007 49.8572 35.0007 50.1667C35.0007 50.4761 34.8777 50.7728 34.6589 50.9916C34.4402 51.2104 34.1434 51.3333 33.834 51.3333Z" fill="url(#paint2_linear_260_679)"/>
<path d="M59.5007 2.33333V11.6667H5.83398V2.33333C5.83398 1.71449 6.07982 1.121 6.5174 0.683417C6.95499 0.245833 7.54848 0 8.16732 0H57.1673C57.7862 0 58.3797 0.245833 58.8172 0.683417C59.2548 1.121 59.5007 1.71449 59.5007 2.33333Z" fill="url(#paint3_linear_260_679)"/>
<g filter="url(#filter0_d_260_679)">
<path d="M59.5007 11.6666V36.1666C59.5007 36.7855 59.2548 37.379 58.8172 37.8165C58.3797 38.2541 57.7862 38.5 57.1673 38.5H8.16732C7.54848 38.5 6.95499 38.2541 6.5174 37.8165C6.07982 37.379 5.83398 36.7855 5.83398 36.1666V11.6666H59.5007Z" fill="white"/>
</g>
<path d="M52.5013 8.16667C52.0398 8.16667 51.5887 8.02982 51.205 7.77343C50.8213 7.51704 50.5222 7.15262 50.3456 6.72626C50.169 6.2999 50.1228 5.83075 50.2128 5.37812C50.3028 4.9255 50.5251 4.50974 50.8514 4.18342C51.1777 3.8571 51.5935 3.63487 52.0461 3.54484C52.4987 3.4548 52.9679 3.50101 53.3942 3.67762C53.8206 3.85422 54.185 4.15329 54.4414 4.537C54.6978 4.92072 54.8346 5.37185 54.8346 5.83333C54.8346 6.45217 54.5888 7.04567 54.1512 7.48325C53.7136 7.92084 53.1201 8.16667 52.5013 8.16667Z" fill="white"/>
<path d="M45.5013 8.16667C45.0398 8.16667 44.5887 8.02982 44.205 7.77343C43.8213 7.51704 43.5222 7.15262 43.3456 6.72626C43.169 6.2999 43.1228 5.83075 43.2128 5.37812C43.3028 4.9255 43.5251 4.50974 43.8514 4.18342C44.1777 3.8571 44.5935 3.63487 45.0461 3.54484C45.4987 3.4548 45.9679 3.50101 46.3942 3.67762C46.8206 3.85422 47.185 4.15329 47.4414 4.537C47.6978 4.92072 47.8346 5.37185 47.8346 5.83333C47.8346 6.45217 47.5888 7.04567 47.1512 7.48325C46.7136 7.92084 46.1201 8.16667 45.5013 8.16667Z" fill="white"/>
<path d="M38.5013 8.16667C38.0398 8.16667 37.5887 8.02982 37.205 7.77343C36.8213 7.51704 36.5222 7.15262 36.3456 6.72626C36.169 6.2999 36.1228 5.83075 36.2128 5.37812C36.3028 4.9255 36.5251 4.50974 36.8514 4.18342C37.1777 3.8571 37.5935 3.63487 38.0461 3.54484C38.4987 3.4548 38.9679 3.50101 39.3942 3.67762C39.8206 3.85422 40.185 4.15329 40.4414 4.537C40.6978 4.92072 40.8346 5.37185 40.8346 5.83333C40.8346 6.45217 40.5888 7.04567 40.1512 7.48325C39.7136 7.92084 39.1201 8.16667 38.5013 8.16667Z" fill="white"/>
<path d="M31.5005 6.99996H11.6672C11.3577 6.99996 11.061 6.87704 10.8422 6.65825C10.6234 6.43946 10.5005 6.14271 10.5005 5.83329C10.5005 5.52387 10.6234 5.22713 10.8422 5.00833C11.061 4.78954 11.3577 4.66663 11.6672 4.66663H31.5005C31.8099 4.66663 32.1067 4.78954 32.3254 5.00833C32.5442 5.22713 32.6672 5.52387 32.6672 5.83329C32.6672 6.14271 32.5442 6.43946 32.3254 6.65825C32.1067 6.87704 31.8099 6.99996 31.5005 6.99996Z" fill="white"/>
<path d="M12.8343 30.3335C12.6421 30.3325 12.4532 30.284 12.2843 30.1925C12.1154 30.1009 11.9717 29.969 11.866 29.8085L9.53264 26.3085C9.40719 26.118 9.34033 25.8949 9.34033 25.6668C9.34033 25.4387 9.40719 25.2156 9.53264 25.0251L11.866 21.5251C12.0483 21.2988 12.3086 21.1486 12.5959 21.1041C12.8831 21.0596 13.1767 21.1239 13.419 21.2845C13.6613 21.445 13.8349 21.6903 13.9059 21.9722C13.9769 22.2541 13.94 22.5523 13.8026 22.8085L11.901 25.6668L13.8026 28.5251C13.9715 28.7824 14.0319 29.0959 13.9707 29.3974C13.9095 29.6989 13.7317 29.9641 13.476 30.1351C13.2881 30.2667 13.0637 30.3361 12.8343 30.3335Z" fill="#FF6D5A"/>
<path d="M22.1673 30.3332C21.938 30.3358 21.7136 30.2664 21.5257 30.1349C21.2699 29.9638 21.0921 29.6986 21.0309 29.3971C20.9698 29.0956 21.0302 28.7821 21.199 28.5249L23.1007 25.6665L21.199 22.8082C21.0972 22.6818 21.0229 22.5355 20.9808 22.3787C20.9387 22.2219 20.9298 22.0581 20.9547 21.8977C20.9795 21.7373 21.0376 21.5838 21.1252 21.4471C21.2127 21.3104 21.3278 21.1935 21.4631 21.1038C21.5985 21.0141 21.751 20.9537 21.911 20.9263C22.071 20.899 22.235 20.9053 22.3924 20.945C22.5498 20.9846 22.6972 21.0566 22.8252 21.1565C22.9532 21.2563 23.0589 21.3818 23.1357 21.5249L25.469 25.0249C25.5945 25.2153 25.6613 25.4384 25.6613 25.6665C25.6613 25.8946 25.5945 26.1177 25.469 26.3082L23.1357 29.8082C23.03 29.9687 22.8863 30.1006 22.7174 30.1922C22.5484 30.2838 22.3595 30.3322 22.1673 30.3332Z" fill="#FF6D5A"/>
<path d="M16.3344 31.3484C16.2375 31.3597 16.1397 31.3597 16.0428 31.3484C15.887 31.3146 15.7399 31.2492 15.6104 31.1564C15.4809 31.0635 15.3718 30.9451 15.2898 30.8085C15.2078 30.6718 15.1547 30.5198 15.1337 30.3619C15.1127 30.2039 15.1243 30.0433 15.1678 29.89L17.5011 20.86C17.5785 20.5599 17.7719 20.3028 18.0388 20.1452C18.3057 19.9877 18.6243 19.9427 18.9244 20.02C19.2246 20.0974 19.4817 20.2908 19.6392 20.5577C19.7967 20.8246 19.8418 21.1432 19.7644 21.4433L17.4311 30.4734C17.3679 30.7184 17.2268 30.9363 17.029 31.0941C16.8312 31.2519 16.5874 31.3412 16.3344 31.3484Z" fill="#FF6D5A"/>
<path d="M42.0008 33.8333H32.6675C32.0496 33.8307 31.458 33.5832 31.0225 33.145L35.3158 28.8516C35.5595 28.6069 35.8546 28.4193 36.1796 28.3024C36.5046 28.1856 36.8516 28.1423 37.1953 28.1758C37.5391 28.2093 37.8712 28.3187 38.1675 28.4961C38.4639 28.6735 38.7172 28.9145 38.9091 29.2016L39.6675 30.3333L42.0008 33.8333Z" fill="#8985E0"/>
<path d="M54.834 19.8333V31.5C54.8369 31.7965 54.7806 32.0906 54.6684 32.365C54.5562 32.6395 54.3904 32.8888 54.1806 33.0983L47.2973 25.3633C47.0742 25.1187 46.8016 24.9243 46.4976 24.793C46.1936 24.6618 45.8652 24.5968 45.5341 24.6024C45.2031 24.6079 44.877 24.6838 44.5775 24.825C44.2781 24.9663 44.0121 25.1697 43.7973 25.4217L39.6673 30.3333L38.909 29.1667C38.7171 28.8795 38.4638 28.6385 38.1674 28.4611C37.871 28.2837 37.539 28.1743 37.1952 28.1408C36.8514 28.1073 36.5045 28.1506 36.1794 28.2675C35.8544 28.3843 35.5594 28.5719 35.3157 28.8167L31.0223 33.11C30.5926 32.683 30.3457 32.1057 30.334 31.5V19.8333C30.334 19.2145 30.5798 18.621 31.0174 18.1834C31.455 17.7458 32.0485 17.5 32.6673 17.5H52.5007C53.1195 17.5 53.713 17.7458 54.1506 18.1834C54.5882 18.621 54.834 19.2145 54.834 19.8333Z" fill="url(#paint4_linear_260_679)"/>
<path d="M54.1813 33.0982C53.9685 33.3317 53.709 33.5179 53.4195 33.6445C53.1301 33.7711 52.8172 33.8354 52.5013 33.8332H42.0013L39.668 30.3332L43.763 25.4216C43.9778 25.1696 44.2437 24.9662 44.5432 24.8249C44.8426 24.6837 45.1687 24.6078 45.4998 24.6023C45.8309 24.5967 46.1593 24.6617 46.4633 24.7929C46.7673 24.9241 47.0399 25.1185 47.263 25.3632L54.1813 33.0982Z" fill="#342EAD"/>
<path d="M37.3338 25.6667C36.8723 25.6667 36.4212 25.5298 36.0375 25.2734C35.6538 25.017 35.3547 24.6526 35.1781 24.2263C35.0015 23.7999 34.9553 23.3307 35.0453 22.8781C35.1354 22.4255 35.3576 22.0097 35.6839 21.6834C36.0102 21.3571 36.426 21.1349 36.8786 21.0448C37.3312 20.9548 37.8004 21.001 38.2267 21.1776C38.6531 21.3542 39.0175 21.6533 39.2739 22.037C39.5303 22.4207 39.6672 22.8718 39.6672 23.3333C39.6672 23.9522 39.4213 24.5457 38.9837 24.9833C38.5462 25.4208 37.9527 25.6667 37.3338 25.6667Z" fill="#F0F7FC"/>
<defs>
<filter id="filter0_d_260_679" x="3.83398" y="10.6666" width="57.6665" height="30.8334" filterUnits="userSpaceOnUse" color-interpolation-filters="sRGB">
<feFlood flood-opacity="0" result="BackgroundImageFix"/>
<feColorMatrix in="SourceAlpha" type="matrix" values="0 0 0 0 0 0 0 0 0 0 0 0 0 0 0 0 0 0 127 0" result="hardAlpha"/>
<feOffset dy="1"/>
<feGaussianBlur stdDeviation="1"/>
<feComposite in2="hardAlpha" operator="out"/>
<feColorMatrix type="matrix" values="0 0 0 0 0.139041 0 0 0 0 0.120729 0 0 0 0 0.508333 0 0 0 0.3 0"/>
<feBlend mode="normal" in2="BackgroundImageFix" result="effect1_dropShadow_260_679"/>
<feBlend mode="normal" in="SourceGraphic" in2="effect1_dropShadow_260_679" result="shape"/>
</filter>
<linearGradient id="paint0_linear_260_679" x1="32.6672" y1="56" x2="32.6672" y2="44.3334" gradientUnits="userSpaceOnUse">
<stop stop-color="#342EAD"/>
<stop offset="1" stop-color="#D2D0FF"/>
</linearGradient>
<linearGradient id="paint1_linear_260_679" x1="78.1683" y1="55.4461" x2="9.78916" y2="4.73359" gradientUnits="userSpaceOnUse">
<stop stop-color="#342EAD"/>
<stop offset="1" stop-color="#DCDAFC"/>
</linearGradient>
<linearGradient id="paint2_linear_260_679" x1="30.334" y1="50.12" x2="35.0007" y2="50.12" gradientUnits="userSpaceOnUse">
<stop stop-color="#D3E6F5"/>
<stop offset="1" stop-color="#F0F7FC"/>
</linearGradient>
<linearGradient id="paint3_linear_260_679" x1="-2.5" y1="6" x2="59.5007" y2="5.83333" gradientUnits="userSpaceOnUse">
<stop stop-color="#342EAD"/>
<stop offset="1" stop-color="#A6A2FF"/>
</linearGradient>
<linearGradient id="paint4_linear_260_679" x1="30.334" y1="25.3167" x2="54.834" y2="25.3167" gradientUnits="userSpaceOnUse">
<stop stop-color="#342EAD"/>
<stop offset="1" stop-color="#BCB9FF"/>
</linearGradient>
</defs>
</svg>
