<svg width="66" height="71" viewBox="0 0 66 71" fill="none" xmlns="http://www.w3.org/2000/svg">
<path d="M65.5421 45.2277L65.5557 49.9309C65.5611 51.8019 64.8291 53.5968 63.5207 54.9205C62.2124 56.2442 60.4348 56.9884 58.579 56.9894L7.26738 57.0166C5.41165 57.0176 3.62978 56.2753 2.31375 54.9529C0.997723 53.6306 0.255345 51.8366 0.249933 49.9655L0.236328 45.2623L65.5421 45.2277Z" fill="url(#paint0_linear_260_744)"/>
<path d="M65.4432 12.5773L65.5525 45.3406L0.296365 45.3577L0.187121 12.5945C0.183266 10.9366 0.763837 9.33257 1.82602 8.06659C2.8882 6.8006 4.36345 5.95429 5.9905 5.67755L59.5937 5.66347C61.2226 5.93936 62.7035 6.78489 63.7741 8.05031C64.8448 9.31574 65.436 10.9194 65.4432 12.5773Z" fill="url(#paint1_linear_260_744)"/>
<path d="M44.9453 70.9756L20.9627 70.982L25.7172 56.9379L40.0974 56.9341L44.9453 70.9756Z" fill="#645DDE"/>
<path d="M46.9412 70.9612L18.9474 70.9858C18.638 70.986 18.341 70.8617 18.1218 70.6402C17.9025 70.4186 17.7789 70.1179 17.7782 69.8043C17.7774 69.4907 17.8996 69.1898 18.1178 68.9679C18.3361 68.7459 18.6324 68.6211 18.9418 68.6208L46.9357 68.5962C47.245 68.5959 47.542 68.7203 47.7612 68.9418C47.9805 69.1634 48.1041 69.4641 48.1048 69.7777C48.1056 70.0913 47.9834 70.3922 47.7652 70.6141C47.547 70.8361 47.2506 70.9609 46.9412 70.9612Z" fill="#342EAD"/>
<path d="M34.0754 52.2946L31.7445 52.2953C31.4354 52.2954 31.1385 52.1721 30.9192 51.9526C30.6999 51.7331 30.5762 51.4353 30.5751 51.1248C30.5741 50.8143 30.6959 50.5164 30.9138 50.2968C31.1316 50.0772 31.4277 49.9537 31.7368 49.9536L34.0677 49.953C34.3768 49.9529 34.6736 50.0762 34.8929 50.2957C35.1122 50.5152 35.236 50.813 35.237 51.1235C35.238 51.434 35.1162 51.7318 34.8984 51.9515C34.6805 52.1711 34.3845 52.2946 34.0754 52.2946Z" fill="url(#paint2_linear_260_744)"/>
<path d="M59.6329 3.25457L59.6611 12.6512L6.02103 12.6762L5.99288 3.27957C5.99101 2.65654 6.23493 2.05891 6.67098 1.61815C7.10703 1.1774 7.69948 0.929621 8.31801 0.929333L57.2937 0.906501C57.9122 0.906213 58.5062 1.15344 58.9448 1.59378C59.3835 2.03413 59.631 2.63153 59.6329 3.25457Z" fill="#928EE0"/>
<g filter="url(#filter0_d_260_744)">
<path d="M59.6216 12.5697L59.7027 37.1549C59.7047 37.7759 59.4611 38.3715 59.0254 38.8107C58.5897 39.25 57.9976 39.4968 57.3794 39.497L8.42856 39.5109C7.81035 39.5111 7.21664 39.2646 6.77804 38.8256C6.33945 38.3866 6.0919 37.7911 6.08985 37.1701L6.00879 12.585L59.6216 12.5697Z" fill="white"/>
</g>
<path d="M52.6641 9.0917C52.2035 9.09181 51.7527 8.9548 51.3689 8.698C50.985 8.44119 50.6853 8.07613 50.5075 7.64897C50.3298 7.22181 50.2821 6.75174 50.3704 6.2982C50.4588 5.84466 50.6792 5.42803 51.0038 5.10099C51.3284 4.77394 51.7426 4.55118 52.1941 4.46086C52.6456 4.37054 53.114 4.41673 53.5402 4.59358C53.9664 4.77044 54.3311 5.07001 54.5883 5.45442C54.8455 5.83883 54.9837 6.29081 54.9852 6.75321C54.9873 7.37327 54.7439 7.96799 54.3087 8.40655C53.8734 8.8451 53.2818 9.09156 52.6641 9.0917Z" fill="white"/>
<path d="M45.6641 9.10476C45.2035 9.10487 44.7527 8.96786 44.3689 8.71106C43.985 8.45425 43.6853 8.08919 43.5075 7.66203C43.3298 7.23487 43.2821 6.7648 43.3704 6.31126C43.4588 5.85772 43.6792 5.44109 44.0038 5.11405C44.3284 4.787 44.7426 4.56424 45.1941 4.47392C45.6456 4.38361 46.114 4.42979 46.5402 4.60665C46.9664 4.7835 47.3311 5.08307 47.5883 5.46748C47.8455 5.85189 47.9837 6.30388 47.9852 6.76628C47.9873 7.38633 47.7439 7.98106 47.3087 8.41961C46.8734 8.85816 46.2818 9.10462 45.6641 9.10476Z" fill="white"/>
<path d="M38.6641 9.11795C38.2035 9.11806 37.7527 8.98105 37.3689 8.72424C36.985 8.46744 36.6853 8.10237 36.5075 7.67521C36.3298 7.24805 36.2821 6.77798 36.3704 6.32444C36.4588 5.87091 36.6792 5.45428 37.0038 5.12723C37.3284 4.80019 37.7426 4.57742 38.1941 4.48711C38.6456 4.39679 39.114 4.44298 39.5402 4.61983C39.9664 4.79668 40.3311 5.09625 40.5883 5.48066C40.8455 5.86508 40.9837 6.31706 40.9852 6.77946C40.9873 7.39952 40.7439 7.99424 40.3087 8.43279C39.8734 8.87134 39.2818 9.1178 38.6641 9.11795Z" fill="white"/>
<path d="M31.6564 7.9845L11.8286 7.99913C11.5193 7.99935 11.2223 7.87526 11.003 7.65414C10.7837 7.43302 10.6601 7.133 10.6593 6.82006C10.6585 6.50713 10.7806 6.20692 10.9987 5.98548C11.2169 5.76404 11.5133 5.6395 11.8226 5.63928L31.6503 5.62465C31.9596 5.62442 32.2566 5.74852 32.4759 5.96963C32.6952 6.19075 32.8189 6.49078 32.8197 6.80372C32.8205 7.11665 32.6984 7.41686 32.4802 7.6383C32.262 7.85974 31.9657 7.98427 31.6564 7.9845Z" fill="white"/>
<path d="M24.6579 18.4689L15.3448 18.4712C14.7019 18.4713 14.1824 18.9947 14.1846 19.6401L14.2241 31.3264C14.2262 31.9718 14.7492 32.4949 15.3921 32.4948L24.7052 32.4925C25.3482 32.4924 25.8676 31.969 25.8654 31.3236L25.826 19.6373C25.8238 18.9919 25.3008 18.4688 24.6579 18.4689Z" fill="#F3CFCB"/>
<path d="M51.5382 33.6139L31.7105 33.6285C31.4011 33.6287 31.1042 33.5047 30.8849 33.2835C30.6656 33.0624 30.5419 32.7624 30.5411 32.4495C30.5403 32.1365 30.6624 31.8363 30.8806 31.6149C31.0987 31.3934 31.3951 31.2689 31.7044 31.2687L51.5322 31.254C51.8415 31.2538 52.1385 31.3779 52.3578 31.599C52.5771 31.8201 52.7007 32.1202 52.7015 32.4331C52.7023 32.746 52.5802 33.0463 52.362 33.2677C52.1439 33.4891 51.8475 33.6137 51.5382 33.6139Z" fill="#F3CFCB"/>
<path d="M51.5294 28.9473L31.7017 28.9619C31.3924 28.9621 31.0954 28.838 30.8761 28.6169C30.6568 28.3958 30.5331 28.0958 30.5323 27.7828C30.5315 27.4699 30.6536 27.1697 30.8718 26.9482C31.09 26.7268 31.3863 26.6023 31.6956 26.602L51.5234 26.5874C51.8327 26.5872 52.1297 26.7113 52.349 26.9324C52.5683 27.1535 52.6919 27.4535 52.6927 27.7665C52.6935 28.0794 52.5714 28.3796 52.3533 28.6011C52.1351 28.8225 51.8387 28.947 51.5294 28.9473Z" fill="#F3CFCB"/>
<path d="M49.1707 18.4244L31.6802 18.4321C31.0362 18.4324 30.5158 18.9584 30.5177 19.6069L30.5249 21.9555C30.5268 22.6041 31.0505 23.1296 31.6944 23.1293L49.1849 23.1216C49.8289 23.1213 50.3494 22.5953 50.3474 21.9468L50.3403 19.5982C50.3383 18.9496 49.8146 18.4241 49.1707 18.4244Z" fill="#FF6D5A"/>
<defs>
<filter id="filter0_d_260_744" x="4.00879" y="11.5697" width="57.6938" height="30.9413" filterUnits="userSpaceOnUse" color-interpolation-filters="sRGB">
<feFlood flood-opacity="0" result="BackgroundImageFix"/>
<feColorMatrix in="SourceAlpha" type="matrix" values="0 0 0 0 0 0 0 0 0 0 0 0 0 0 0 0 0 0 127 0" result="hardAlpha"/>
<feOffset dy="1"/>
<feGaussianBlur stdDeviation="1"/>
<feComposite in2="hardAlpha" operator="out"/>
<feColorMatrix type="matrix" values="0 0 0 0 0.139041 0 0 0 0 0.120729 0 0 0 0 0.508333 0 0 0 0.3 0"/>
<feBlend mode="normal" in2="BackgroundImageFix" result="effect1_dropShadow_260_744"/>
<feBlend mode="normal" in="SourceGraphic" in2="effect1_dropShadow_260_744" result="shape"/>
</filter>
<linearGradient id="paint0_linear_260_744" x1="32.9232" y1="57.003" x2="32.917" y2="45.245" gradientUnits="userSpaceOnUse">
<stop stop-color="#342EAD"/>
<stop offset="1" stop-color="#D2D0FF"/>
</linearGradient>
<linearGradient id="paint1_linear_260_744" x1="78.4077" y1="56.4533" x2="9.82352" y2="5.9038" gradientUnits="userSpaceOnUse">
<stop stop-color="#342EAD"/>
<stop offset="1" stop-color="#DCDAFC"/>
</linearGradient>
<linearGradient id="paint2_linear_260_744" x1="30.5751" y1="51.1248" x2="35.237" y2="51.1094" gradientUnits="userSpaceOnUse">
<stop stop-color="#D3E6F5"/>
<stop offset="1" stop-color="#F0F7FC"/>
</linearGradient>
</defs>
</svg>
