<svg width="356" height="186" viewBox="0 0 356 186" fill="none" xmlns="http://www.w3.org/2000/svg">
<path d="M0 20C0 8.95431 8.95431 0 20 0H336C347.046 0 356 8.9543 356 20V136.74C356 137.245 355.944 137.749 355.834 138.241L354.418 144.553C353.043 150.682 349.702 156.194 344.902 160.246V160.246C341.969 162.724 339.56 165.763 337.819 169.185L337.279 170.247C334.118 176.459 328.485 181.053 321.764 182.9L312.859 185.347C311.282 185.78 309.653 186 308.017 186H10C4.47716 186 0 181.523 0 176V20Z" fill="url(#paint0_linear_260_815)"/>
<defs>
<linearGradient id="paint0_linear_260_815" x1="-36.6824" y1="13.2416" x2="332.724" y2="-27.1063" gradientUnits="userSpaceOnUse">
<stop stop-color="#E9F1FF"/>
<stop offset="1" stop-color="white"/>
</linearGradient>
</defs>
</svg>
