<svg width="1920" height="480" viewBox="0 0 1920 480" fill="none" xmlns="http://www.w3.org/2000/svg">
<rect width="1920" height="480" fill="url(#paint0_linear_266_2002)"/>
<mask id="mask0_266_2002" style="mask-type:alpha" maskUnits="userSpaceOnUse" x="0" y="0" width="1920" height="480">
<rect width="1920" height="480" fill="url(#paint1_linear_266_2002)"/>
</mask>
<g mask="url(#mask0_266_2002)">
<path fill-rule="evenodd" clip-rule="evenodd" d="M1280.22 742.151C1265.08 691.157 1235.22 641.555 1200.67 600.794C1081.69 460.227 903.525 395.572 728.618 371.992C676.009 364.887 623.37 362.046 570.939 359.768C504.982 356.794 438.988 355.652 372.844 351.416C287.104 345.725 195.598 335.471 114.466 297.758C43.598 264.928 4.86077 212.05 -8.50051 151.633L-5.70818 147.288C6.69398 208.088 44.8757 261.608 115.945 294.568C196.739 331.921 287.712 342.117 373.084 347.715C439.163 352.052 505.157 353.194 571.113 356.168C623.71 358.41 676.451 361.316 729.06 368.421C904.868 392.151 1083.91 457.224 1203.47 598.447C1237.57 638.782 1267.29 687.721 1282.76 738.209L1280.22 742.151Z" fill="url(#paint2_linear_266_2002)"/>
<path fill-rule="evenodd" clip-rule="evenodd" d="M1148.44 692.337C1129.98 647.708 1098.35 605.717 1063.33 572.151C942.681 456.382 775.712 414.723 615.545 409.851C567.369 408.375 519.565 410.752 472.002 413.617C412.159 417.125 352.455 422.29 292.325 424.675C214.362 427.586 130.763 426.919 53.9535 400.479C-13.1273 377.485 -53.0746 333.37 -70.8136 280.064L-68.7 275.878C-51.7912 329.62 -12.2852 374.367 54.9901 397.459C131.46 423.605 214.571 424.271 292.194 421.31C352.275 419.023 411.979 413.857 471.822 410.35C519.531 407.436 567.432 405.108 615.609 406.585C776.603 411.507 944.399 453.462 1065.63 569.769C1100.22 602.993 1131.65 644.398 1150.36 688.54L1148.44 692.337Z" fill="url(#paint3_linear_266_2002)"/>
<path fill-rule="evenodd" clip-rule="evenodd" d="M1739.34 534C1728.06 509.721 1720.34 484.021 1717.14 457.966C1705.02 362.628 1745.63 286.239 1808.57 221.693C1814.27 215.89 1820.08 210.087 1826.14 204.521C1828.63 202.152 1831.13 199.902 1833.62 197.652C1861.88 172.07 1893.47 148.265 1926 126V130.382C1891.57 153.95 1858.44 179.295 1828.99 206.771C1826.61 209.021 1824.24 211.271 1821.86 213.522C1818.18 217.075 1814.62 220.628 1811.06 224.181C1748.96 287.897 1708.7 363.339 1720.58 457.493C1723.9 483.785 1731.74 509.603 1743.26 534H1739.34Z" fill="url(#paint4_linear_266_2002)"/>
<path fill-rule="evenodd" clip-rule="evenodd" d="M1833.52 534C1825.21 519.907 1817.97 504.985 1811.91 488.879C1801.23 460.101 1793.87 429.428 1790.78 398.282C1784.02 328.173 1796.96 267.419 1821.89 213.534C1823.31 210.455 1824.74 207.495 1826.16 204.534C1851.09 154.202 1886.47 110.029 1926 70V74.974C1889.91 111.805 1857.5 152.189 1833.64 197.665C1831.98 200.626 1830.43 203.705 1829.01 206.784C1801.71 262.09 1787.34 324.975 1794.35 397.926C1797.31 428.836 1804.67 459.154 1815.36 487.576C1821.53 504.156 1829.01 519.552 1837.68 534H1833.52Z" fill="url(#paint5_linear_266_2002)"/>
</g>
<defs>
<linearGradient id="paint0_linear_266_2002" x1="-197.838" y1="34.1719" x2="1718.39" y2="-403.236" gradientUnits="userSpaceOnUse">
<stop stop-color="white"/>
<stop offset="0.178906" stop-color="#FFF1EF"/>
<stop offset="1" stop-color="#E0F0FF"/>
</linearGradient>
<linearGradient id="paint1_linear_266_2002" x1="-197.838" y1="34.1719" x2="1718.39" y2="-403.236" gradientUnits="userSpaceOnUse">
<stop stop-color="white"/>
<stop offset="0.178906" stop-color="#FFF1EF"/>
<stop offset="1" stop-color="#E0F0FF"/>
</linearGradient>
<linearGradient id="paint2_linear_266_2002" x1="18.1843" y1="162.704" x2="1344.02" y2="488.039" gradientUnits="userSpaceOnUse">
<stop stop-color="white"/>
<stop offset="1" stop-color="white" stop-opacity="0"/>
</linearGradient>
<linearGradient id="paint3_linear_266_2002" x1="-45.6759" y1="287.556" x2="1182.19" y2="456.867" gradientUnits="userSpaceOnUse">
<stop offset="0.572917" stop-color="white"/>
<stop offset="1" stop-color="white" stop-opacity="0"/>
</linearGradient>
<linearGradient id="paint4_linear_266_2002" x1="1664" y1="481" x2="1874.76" y2="489.809" gradientUnits="userSpaceOnUse">
<stop stop-color="white" stop-opacity="0"/>
<stop offset="1" stop-color="white"/>
</linearGradient>
<linearGradient id="paint5_linear_266_2002" x1="1791.78" y1="451.988" x2="1918.04" y2="448.761" gradientUnits="userSpaceOnUse">
<stop stop-color="white"/>
<stop offset="1" stop-color="white" stop-opacity="0"/>
</linearGradient>
</defs>
</svg>
