<svg width="586" height="813" viewBox="0 0 586 813" fill="none" xmlns="http://www.w3.org/2000/svg">
<path d="M2.5 316C2.5 155.561 132.561 25.5 293 25.5C453.439 25.5 583.5 155.561 583.5 316V613C583.5 723.181 494.181 812.5 384 812.5H202C91.8192 812.5 2.5 723.181 2.5 613V316Z" stroke="url(#paint0_linear_260_633)"/>
<g filter="url(#filter0_d_260_633)">
<path d="M40 313C40 173.272 153.272 60 293 60C432.728 60 546 173.272 546 313V582C546 692.457 456.457 782 346 782H240C129.543 782 40 692.457 40 582V313Z" fill="url(#paint1_linear_260_633)"/>
<path d="M41 313C41 173.824 153.824 61 293 61C432.176 61 545 173.824 545 313V582C545 691.905 455.905 781 346 781H240C130.095 781 41 691.905 41 582V313Z" stroke="url(#paint2_linear_260_633)" stroke-width="2"/>
</g>
<defs>
<filter id="filter0_d_260_633" x="0" y="0" width="586" height="802" filterUnits="userSpaceOnUse" color-interpolation-filters="sRGB">
<feFlood flood-opacity="0" result="BackgroundImageFix"/>
<feColorMatrix in="SourceAlpha" type="matrix" values="0 0 0 0 0 0 0 0 0 0 0 0 0 0 0 0 0 0 127 0" result="hardAlpha"/>
<feOffset dy="-20"/>
<feGaussianBlur stdDeviation="20"/>
<feComposite in2="hardAlpha" operator="out"/>
<feColorMatrix type="matrix" values="0 0 0 0 0.0791667 0 0 0 0 0.133 0 0 0 0 0.2375 0 0 0 0.03 0"/>
<feBlend mode="normal" in2="BackgroundImageFix" result="effect1_dropShadow_260_633"/>
<feBlend mode="normal" in="SourceGraphic" in2="effect1_dropShadow_260_633" result="shape"/>
</filter>
<linearGradient id="paint0_linear_260_633" x1="327" y1="25" x2="341.924" y2="547.231" gradientUnits="userSpaceOnUse">
<stop stop-color="white"/>
<stop offset="1" stop-color="white" stop-opacity="0.1"/>
</linearGradient>
<linearGradient id="paint1_linear_260_633" x1="-205" y1="-87.9993" x2="457.966" y2="-194.608" gradientUnits="userSpaceOnUse">
<stop stop-color="white"/>
<stop offset="0.34848" stop-color="#FFF1EF"/>
<stop offset="1" stop-color="#E0F0FF"/>
</linearGradient>
<linearGradient id="paint2_linear_260_633" x1="697" y1="22" x2="25" y2="578" gradientUnits="userSpaceOnUse">
<stop stop-color="white"/>
<stop offset="1" stop-color="white" stop-opacity="0.1"/>
</linearGradient>
</defs>
</svg>
