<svg width="66" height="70" viewBox="0 0 66 70" fill="none" xmlns="http://www.w3.org/2000/svg">
<path d="M65.3338 44.3334V49C65.3338 50.8566 64.5963 52.637 63.2836 53.9498C61.9708 55.2625 60.1903 56 58.3338 56H7.00049C5.14397 56 3.3635 55.2625 2.05074 53.9498C0.737986 52.637 0.000488281 50.8566 0.000488281 49V44.3334H65.3338Z" fill="url(#paint0_linear_260_711)"/>
<path d="M65.334 11.6666V44.3333H0.000683704V11.6666C-0.022663 9.99561 0.552589 8.37138 1.62245 7.08754C2.69231 5.80371 4.18619 4.94499 5.83402 4.66663H59.5007C61.1485 4.94499 62.6424 5.80371 63.7122 7.08754C64.7821 8.37138 65.3574 9.99561 65.334 11.6666Z" fill="url(#paint1_linear_260_711)"/>
<path d="M44.6721 69.9416H20.6621L25.4688 55.9416H39.8654L44.6721 69.9416Z" fill="#645DDE"/>
<path d="M46.6672 70H18.6672C18.3577 70 18.061 69.877 17.8422 69.6583C17.6234 69.4395 17.5005 69.1427 17.5005 68.8333C17.5005 68.5239 17.6234 68.2271 17.8422 68.0083C18.061 67.7895 18.3577 67.6666 18.6672 67.6666H46.6672C46.9766 67.6666 47.2733 67.7895 47.4921 68.0083C47.7109 68.2271 47.8338 68.5239 47.8338 68.8333C47.8338 69.1427 47.7109 69.4395 47.4921 69.6583C47.2733 69.877 46.9766 70 46.6672 70Z" fill="#342EAD"/>
<path d="M33.834 51.3333H31.5007C31.1912 51.3333 30.8945 51.2104 30.6757 50.9916C30.4569 50.7728 30.334 50.4761 30.334 50.1667C30.334 49.8572 30.4569 49.5605 30.6757 49.3417C30.8945 49.1229 31.1912 49 31.5007 49H33.834C34.1434 49 34.4402 49.1229 34.6589 49.3417C34.8777 49.5605 35.0007 49.8572 35.0007 50.1667C35.0007 50.4761 34.8777 50.7728 34.6589 50.9916C34.4402 51.2104 34.1434 51.3333 33.834 51.3333Z" fill="url(#paint2_linear_260_711)"/>
<path d="M59.5007 2.33333V11.6667H5.83398V2.33333C5.83398 1.71449 6.07982 1.121 6.5174 0.683417C6.95499 0.245833 7.54848 0 8.16732 0H57.1673C57.7862 0 58.3797 0.245833 58.8172 0.683417C59.2548 1.121 59.5007 1.71449 59.5007 2.33333Z" fill="url(#paint3_linear_260_711)"/>
<g filter="url(#filter0_d_260_711)">
<path d="M59.6667 11.6666V36.1666C59.6667 36.7855 59.4208 37.379 58.9833 37.8165C58.5457 38.2541 57.9522 38.5 57.3333 38.5H8.33333C7.71449 38.5 7.121 38.2541 6.68342 37.8165C6.24583 37.379 6 36.7855 6 36.1666V11.6666H59.6667Z" fill="white"/>
</g>
<path d="M19.6667 30.5942C19.4899 30.5942 19.3203 30.524 19.1953 30.3989C19.0702 30.2739 19 30.1043 19 29.9275V27.2609C19 26.7304 19.2107 26.2217 19.5858 25.8467C19.9609 25.4716 20.4696 25.2609 21 25.2609H31.6667V21.9275C31.6667 21.7507 31.7369 21.5812 31.8619 21.4561C31.987 21.3311 32.1565 21.2609 32.3333 21.2609C32.5101 21.2609 32.6797 21.3311 32.8047 21.4561C32.9298 21.5812 33 21.7507 33 21.9275V25.9275C33 26.1043 32.9298 26.2739 32.8047 26.3989C32.6797 26.524 32.5101 26.5942 32.3333 26.5942H21C20.8232 26.5942 20.6536 26.6644 20.5286 26.7895C20.4036 26.9145 20.3333 27.0841 20.3333 27.2609V29.9275C20.3333 30.1043 20.2631 30.2739 20.1381 30.3989C20.013 30.524 19.8435 30.5942 19.6667 30.5942Z" fill="#6D67D8"/>
<path d="M44.9998 30.5942C44.823 30.5942 44.6535 30.524 44.5284 30.3989C44.4034 30.2739 44.3332 30.1043 44.3332 29.9275V27.2609C44.3332 27.0841 44.2629 26.9145 44.1379 26.7895C44.0129 26.6644 43.8433 26.5942 43.6665 26.5942H32.9998V29.9275C32.9998 30.1043 32.9296 30.2739 32.8046 30.3989C32.6796 30.524 32.51 30.5942 32.3332 30.5942C32.1564 30.5942 31.9868 30.524 31.8618 30.3989C31.7367 30.2739 31.6665 30.1043 31.6665 29.9275V25.9275C31.6665 25.7507 31.7367 25.5812 31.8618 25.4561C31.9868 25.3311 32.1564 25.2609 32.3332 25.2609H43.6665C44.1969 25.2609 44.7056 25.4716 45.0807 25.8467C45.4558 26.2217 45.6665 26.7304 45.6665 27.2609V29.9275C45.6665 30.1043 45.5963 30.2739 45.4712 30.3989C45.3462 30.524 45.1766 30.5942 44.9998 30.5942Z" fill="#6D67D8"/>
<path d="M44.3333 14.2609H20.3333C19.597 14.2609 19 14.8578 19 15.5942V19.5942C19 20.3306 19.597 20.9275 20.3333 20.9275H44.3333C45.0697 20.9275 45.6667 20.3306 45.6667 19.5942V15.5942C45.6667 14.8578 45.0697 14.2609 44.3333 14.2609Z" fill="url(#paint4_linear_260_711)"/>
<path d="M32.6668 18.2609H32.0002C31.8234 18.2609 31.6538 18.1907 31.5288 18.0657C31.4037 17.9407 31.3335 17.7711 31.3335 17.5943C31.3335 17.4175 31.4037 17.2479 31.5288 17.1229C31.6538 16.9978 31.8234 16.9276 32.0002 16.9276H32.6668C32.8436 16.9276 33.0132 16.9978 33.1382 17.1229C33.2633 17.2479 33.3335 17.4175 33.3335 17.5943C33.3335 17.7711 33.2633 17.9407 33.1382 18.0657C33.0132 18.1907 32.8436 18.2609 32.6668 18.2609Z" fill="#D7E9F7"/>
<path d="M29.0003 18.2609H28.3337C28.1568 18.2609 27.9873 18.1907 27.8623 18.0657C27.7372 17.9407 27.667 17.7711 27.667 17.5943C27.667 17.4175 27.7372 17.2479 27.8623 17.1229C27.9873 16.9978 28.1568 16.9276 28.3337 16.9276H29.0003C29.1771 16.9276 29.3467 16.9978 29.4717 17.1229C29.5968 17.2479 29.667 17.4175 29.667 17.5943C29.667 17.7711 29.5968 17.9407 29.4717 18.0657C29.3467 18.1907 29.1771 18.2609 29.0003 18.2609Z" fill="#D7E9F7"/>
<path d="M36.3333 18.2609H35.6667C35.4899 18.2609 35.3203 18.1907 35.1953 18.0657C35.0702 17.9407 35 17.7711 35 17.5943C35 17.4175 35.0702 17.2479 35.1953 17.1229C35.3203 16.9978 35.4899 16.9276 35.6667 16.9276H36.3333C36.5101 16.9276 36.6797 16.9978 36.8047 17.1229C36.9298 17.2479 37 17.4175 37 17.5943C37 17.7711 36.9298 17.9407 36.8047 18.0657C36.6797 18.1907 36.5101 18.2609 36.3333 18.2609Z" fill="#D7E9F7"/>
<path d="M45.8868 30.9275H44.1135C43.1304 30.9275 42.3335 31.7244 42.3335 32.7075V34.4808C42.3335 35.4639 43.1304 36.2608 44.1135 36.2608H45.8868C46.8699 36.2608 47.6668 35.4639 47.6668 34.4808V32.7075C47.6668 31.7244 46.8699 30.9275 45.8868 30.9275Z" fill="#FF6D5A"/>
<path d="M33.2198 30.9275H31.4465C30.4634 30.9275 29.6665 31.7244 29.6665 32.7075V34.4808C29.6665 35.4639 30.4634 36.2608 31.4465 36.2608H33.2198C34.2029 36.2608 34.9998 35.4639 34.9998 34.4808V32.7075C34.9998 31.7244 34.2029 30.9275 33.2198 30.9275Z" fill="#FF6D5A"/>
<path d="M20.7933 30.9275H18.54C17.6895 30.9275 17 31.617 17 32.4675V34.7208C17 35.5713 17.6895 36.2608 18.54 36.2608H20.7933C21.6439 36.2608 22.3333 35.5713 22.3333 34.7208V32.4675C22.3333 31.617 21.6439 30.9275 20.7933 30.9275Z" fill="#FF6D5A"/>
<path d="M52.5013 8.16667C52.0398 8.16667 51.5887 8.02982 51.205 7.77343C50.8213 7.51704 50.5222 7.15262 50.3456 6.72626C50.169 6.2999 50.1228 5.83075 50.2128 5.37812C50.3028 4.9255 50.5251 4.50974 50.8514 4.18342C51.1777 3.8571 51.5935 3.63487 52.0461 3.54484C52.4987 3.4548 52.9679 3.50101 53.3942 3.67762C53.8206 3.85422 54.185 4.15329 54.4414 4.537C54.6978 4.92072 54.8346 5.37185 54.8346 5.83333C54.8346 6.45217 54.5888 7.04567 54.1512 7.48325C53.7136 7.92084 53.1201 8.16667 52.5013 8.16667Z" fill="white"/>
<path d="M45.5013 8.16667C45.0398 8.16667 44.5887 8.02982 44.205 7.77343C43.8213 7.51704 43.5222 7.15262 43.3456 6.72626C43.169 6.2999 43.1228 5.83075 43.2128 5.37812C43.3028 4.9255 43.5251 4.50974 43.8514 4.18342C44.1777 3.8571 44.5935 3.63487 45.0461 3.54484C45.4987 3.4548 45.9679 3.50101 46.3942 3.67762C46.8206 3.85422 47.185 4.15329 47.4414 4.537C47.6978 4.92072 47.8346 5.37185 47.8346 5.83333C47.8346 6.45217 47.5888 7.04567 47.1512 7.48325C46.7136 7.92084 46.1201 8.16667 45.5013 8.16667Z" fill="white"/>
<path d="M38.5013 8.16667C38.0398 8.16667 37.5887 8.02982 37.205 7.77343C36.8213 7.51704 36.5222 7.15262 36.3456 6.72626C36.169 6.2999 36.1228 5.83075 36.2128 5.37812C36.3028 4.9255 36.5251 4.50974 36.8514 4.18342C37.1777 3.8571 37.5935 3.63487 38.0461 3.54484C38.4987 3.4548 38.9679 3.50101 39.3942 3.67762C39.8206 3.85422 40.185 4.15329 40.4414 4.537C40.6978 4.92072 40.8346 5.37185 40.8346 5.83333C40.8346 6.45217 40.5888 7.04567 40.1512 7.48325C39.7136 7.92084 39.1201 8.16667 38.5013 8.16667Z" fill="white"/>
<path d="M31.5005 6.99996H11.6672C11.3577 6.99996 11.061 6.87704 10.8422 6.65825C10.6234 6.43946 10.5005 6.14271 10.5005 5.83329C10.5005 5.52387 10.6234 5.22713 10.8422 5.00833C11.061 4.78954 11.3577 4.66663 11.6672 4.66663H31.5005C31.8099 4.66663 32.1067 4.78954 32.3254 5.00833C32.5442 5.22713 32.6672 5.52387 32.6672 5.83329C32.6672 6.14271 32.5442 6.43946 32.3254 6.65825C32.1067 6.87704 31.8099 6.99996 31.5005 6.99996Z" fill="white"/>
<defs>
<filter id="filter0_d_260_711" x="4" y="10.6666" width="57.6665" height="30.8334" filterUnits="userSpaceOnUse" color-interpolation-filters="sRGB">
<feFlood flood-opacity="0" result="BackgroundImageFix"/>
<feColorMatrix in="SourceAlpha" type="matrix" values="0 0 0 0 0 0 0 0 0 0 0 0 0 0 0 0 0 0 127 0" result="hardAlpha"/>
<feOffset dy="1"/>
<feGaussianBlur stdDeviation="1"/>
<feComposite in2="hardAlpha" operator="out"/>
<feColorMatrix type="matrix" values="0 0 0 0 0.139041 0 0 0 0 0.120729 0 0 0 0 0.508333 0 0 0 0.3 0"/>
<feBlend mode="normal" in2="BackgroundImageFix" result="effect1_dropShadow_260_711"/>
<feBlend mode="normal" in="SourceGraphic" in2="effect1_dropShadow_260_711" result="shape"/>
</filter>
<linearGradient id="paint0_linear_260_711" x1="32.6672" y1="56" x2="32.6672" y2="44.3334" gradientUnits="userSpaceOnUse">
<stop stop-color="#342EAD"/>
<stop offset="1" stop-color="#D2D0FF"/>
</linearGradient>
<linearGradient id="paint1_linear_260_711" x1="78.1683" y1="55.4461" x2="9.78916" y2="4.73359" gradientUnits="userSpaceOnUse">
<stop stop-color="#342EAD"/>
<stop offset="1" stop-color="#DCDAFC"/>
</linearGradient>
<linearGradient id="paint2_linear_260_711" x1="30.334" y1="50.12" x2="35.0007" y2="50.12" gradientUnits="userSpaceOnUse">
<stop stop-color="#D3E6F5"/>
<stop offset="1" stop-color="#F0F7FC"/>
</linearGradient>
<linearGradient id="paint3_linear_260_711" x1="-2.5" y1="6" x2="59.5007" y2="5.83333" gradientUnits="userSpaceOnUse">
<stop stop-color="#342EAD"/>
<stop offset="1" stop-color="#A6A2FF"/>
</linearGradient>
<linearGradient id="paint4_linear_260_711" x1="32.3333" y1="20.9275" x2="32.3333" y2="14.2609" gradientUnits="userSpaceOnUse">
<stop stop-color="#342EAD"/>
<stop offset="1" stop-color="#D2D0FF"/>
</linearGradient>
</defs>
</svg>
